<?xml version="1.0" encoding="UTF-8"?>
<svg version="1.1" viewBox="0 0 2048 1451" width="1280" height="1280" xmlns="http://www.w3.org/2000/svg">
<path transform="translate(369,393)" d="m0 0 6 4 13 11 10 8 11 9 17 14 11 9 17 14 11 9 9 7 5-2 20-13 18-10 27-13 27-10 25-7 24-5 21-3 11-1 30-1 23 1 26 3 26 5 29 8 27 10 33 16 23 14 17 12 14 11 14 12 23 23 9 11 12 15 6 9 3-2 7 7 9 11 12 13 7 8 12 14 2 7 15 97 15 105 11 87 8 74 5 64 1 26v17l-2 24-4 11-11 12-8 8-16 11-21 11-19 7-20 5-23 3h-19l-26-3-25-6-18-6-25-12-13-9-10-8-13-13-10-14-6-12-8 1-27 6-28 4-14 1h-35l-30-3-31-6-24-7-31-11-237-88-64-24-15-6-25-12-17-10-16-11-13-10-14-12-22-22-9-11-13-17-12-19-10-18-9-19-9-24-2-6v-4l-12-3-8-3 1-6 4-10 9 2-4-20-3-27v-38l3-28 6-29 9-29 1-3-1-3 7-14 5-12 8-21 5-9 7-8 11-7 10-3h16l21 7 14 5 11 2 1 4 9 2 121 45-1-7v-40l4-27 6-22 8-22 11-22 12-19z" fill="#0C0C0C"/>
<path transform="translate(1771,177)" d="m0 0 5 1 9 10 12 18 17 28 12 21 14 25 13 23 17 32 12 22 12 23 12 22 10 20 10 19 18 35 14 27 12 24 11 15 12 21 9 19 10 30 5 26 1 9v42l-3 21-5 21-9 26-13 27-13 21-14 19-11 13-11 12-20 20-11 9-13 11-18 13-15 10-25 15-26 14-31 14-34 13-31 10-34 9-40 8-35 5-31 3-17 1h-70l-39-3-36-5-36-7-28-7-35-11-26-10-27-12-22-11-27-16-16-11-17-13-13-11-10-9-18-18-9-11-11-14-13-20-14-27-9-25-6-24-3-23v-36l3-23 6-25 8-22 9-20 8-15 16-43 21-55 19-49 16-40 17-41 12-28 17-38 12-25 12-21 7-9 4-4h5l7 7 12 17 14 23 13 22 13 23 16 29 12 22 13 24v2l34-9 30-7 41-7 34-4 28-2h73l37 3 31 4h6l16-39 15-36 13-30 16-35 13-26 10-16z" fill="#FEB600"/>
<path transform="translate(125,501)" d="m0 0h16l21 7 14 5 11 2 1 4 9 2 121 45 1 1 5 25 7 20 8 17 12 18 9 10 5 6 11 9 15 10 15 7 20 6 13 2h27l22-4 18-6 17-8h2l2 26 4 23 7 24 9 21 10 18 9 12 11 13 7 7 14 11 15 9 15 7 16 5 16 3 19 1 23-2 21-5 16-6 16-8 12-7 11-8 11-9 15-14 7-8 10-13 54-12-1 6-16 39-17 43-15 40-14 39-16 50-10 37-6 29-2 17v17l3 11 1 4-30 7-24 4-23 2h-35l-30-3-31-6-24-7-31-11-237-88-64-24-15-6-25-12-17-10-16-11-13-10-14-12-22-22-9-11-13-17-12-19-10-18-9-19-9-24-2-6v-4l-12-3-8-3 1-6 4-10 9 2-4-20-3-27v-38l3-28 6-29 9-29 1-3-1-3 7-14 5-12 8-21 5-9 7-8 11-7z" fill="#00C6EC"/>
<path transform="translate(675,413)" d="m0 0 30 1 26 3 26 5 29 8 27 10 33 16 23 14 17 12 14 11 14 12 23 23 9 11 12 15 7 11-19 41-32 72-23 54-3 7-39 9-11 2-18-13-19-14-14-10-18-13-19-14-54-39-19-14-54-39-19-14-14-10-18-13-12-9-6-3-14-12-10-8-17-14-33-27-5-5 13-9 18-11 23-12 20-9 25-9 30-8 29-5 19-2z" fill="#00C6EC"/>
<path transform="translate(1756,983)" d="m0 0h7l5 4 2 10 17 176 4 43-3 6-4 2h-7l-32-15-36-16-39-18-33-15-35-16-27-12-4 1-69 48-16 11-23 16-16 11-20 14-23 16-16 11-2 1h-8l-5-5-3-31-16-190v-9l4-5 2-1h7l34 16 28 13 27 13 28 13 38 18 28 13 19 9 4-2 17-12 18-13 20-14 18-13 14-10 17-12 18-13 34-24 18-13z" fill="#0C0C0C"/>
<path transform="translate(1717,737)" d="m0 0h8l4 5-1 10-6 15-9 14-11 12-13 10-16 8-15 5-11 2h-27l-18-4-13-5-11-6-14-11-9-10-4-6-3 4-7 11-11 12-10 8-14 8-16 6-14 3h-31l-17-4-16-7-15-10-13-13-9-14-5-11v-7l5-5h6l5 5 8 16 8 10 9 8 14 8 15 5 11 2h20l15-3 13-5 12-7 12-11 6-7 6-10 5-15h3l4 2 6-1 3-3h2l8 16 7 9 7 7 14 9 12 5 12 3 8 1h15l16-3 14-5 13-8 10-9 7-8 7-12 5-15z" fill="#fff"/>
<path transform="translate(125,501)" d="m0 0h16l21 7 14 5 11 2 1 2-4 15-7 16-8 12-9 10-10 8-13 6-14 3h-16l-20-4-14-5-1-3 7-14 5-12 8-21 5-9 7-8 11-7z" fill="#00C6EC"/>
<path transform="translate(1606,677)" d="m0 0h9l5 5-1 7-66 66-6 1-5-3-70-55-2-3 1-7 4-3 63-4z" fill="#FE425D"/>
<path transform="translate(237,680)" d="m0 0 11 1 6 2-4 17-6 16-9 16-10 13-9 9-14 10-19 9-23 6-20 2h-19l-22-2-26-5-24-7-2-1 1-6 4-10 9 2 22 6 24 4 11 1h25l21-3 18-6 15-8 11-9 9-10 8-13 8-19z" fill="#0C0C0C"/>
<path transform="translate(1749,560)" d="m0 0h17l14 2 15 4 19 9 11 8 10 9 7 7 9 13 3 5v7l-5 5h-6l-5-5-9-13-10-11-14-10-15-7-14-4-6-1h-25l-17 4-16 7-13 9-9 8-10 13-12 24-3 2h-6l-5-5v-7l5-12 8-14 11-13 9-9 16-11 17-8 15-4z" fill="#fff"/>
<path transform="translate(1319,597)" d="m0 0h27l18 4 14 5 16 9 10 8 14 14 10 15 1 2v7l-4 4-6 1-5-3-9-14-9-10-11-9-16-9-16-5-12-2h-17l-16 3-16 6-12 7-10 8-8 8-9 13-7 15-3 5-2 2h-8l-4-4v-8l10-21 9-12 10-11 13-10 14-8 15-6z" fill="#fff"/>
<path transform="translate(172,513)" d="m0 0 9 1 7 2-4 16-7 16-8 12-9 10-10 8-13 6-14 3h-16l-20-4-14-5-1-3 6-13 6 1 16 5 6 1h18l10-3 11-6 8-8 9-14 6-15 3-9z" fill="#FE425E"/>
</svg>
